<?xml version="1.0" encoding="utf-8"?>
<!-- Generator: Adobe Illustrator 19.0.0, SVG Export Plug-In . SVG Version: 6.00 Build 0)  -->
<svg version="1.1"
	 id="svg2" sodipodi:docname="LongPlay.svg" inkscape:version="0.48.2 r9819" xmlns:dc="http://purl.org/dc/elements/1.1/" xmlns:cc="http://creativecommons.org/ns#" xmlns:inkscape="http://www.inkscape.org/namespaces/inkscape" xmlns:sodipodi="http://sodipodi.sourceforge.net/DTD/sodipodi-0.dtd" xmlns:rdf="http://www.w3.org/1999/02/22-rdf-syntax-ns#" xmlns:svg="http://www.w3.org/2000/svg"
	 xmlns="http://www.w3.org/2000/svg" xmlns:xlink="http://www.w3.org/1999/xlink" x="0px" y="0px" viewBox="201.5 34 725.5 725.4"
	 style="enable-background:new 201.5 34 725.5 725.4;" xml:space="preserve">
<style type="text/css">
	.st0{fill:#333333;}
	.st1{fill:none;stroke:#666666;stroke-width:1.0163;}
	.st2{filter:url(#filter3803);}
	.st3{fill:url(#SVGID_1_);}
	.st4{fill:url(#path3763_1_);stroke:#FFFFFF;stroke-width:13.672;}
	.st5{stroke:#FFFFFF;stroke-width:148.6636;}
	.st6{font-family:'ArialMT';}
	.st7{font-size:40px;}
</style>
<filter  color-interpolation-filters="sRGB" inkscape:menu-tooltip="Smooth colorized contour which allows desaturation and hue rotation" inkscape:menu="Blurs" inkscape:label="Fancy blur" id="filter3803">
	<feGaussianBlur  stdDeviation="5" result="result1" id="feGaussianBlur3805"></feGaussianBlur>
	<feComposite  k1="0" k4="0" in2="result1" operator="arithmetic" id="feComposite3807" k3="0" in="result1" k2="2"></feComposite>
</filter>
<sodipodi:namedview  inkscape:snap-intersection-paths="true" inkscape:snap-bbox-edge-midpoints="true" fit-margin-bottom="0" fit-margin-right="0" inkscape:snap-global="false" inkscape:window-maximized="1" inkscape:window-y="-8" inkscape:window-x="-8" inkscape:window-height="706" inkscape:window-width="1024" inkscape:snap-center="true" inkscape:snap-object-midpoints="true" inkscape:snap-midpoints="true" inkscape:snap-smooth-nodes="true" inkscape:object-nodes="true" inkscape:object-paths="true" inkscape:snap-bbox-midpoints="true" inkscape:bbox-nodes="true" inkscape:bbox-paths="true" inkscape:snap-bbox="true" inkscape:current-layer="layer1" inkscape:document-units="px" inkscape:pageshadow="2" inkscape:pageopacity="0.0" inkscape:cx="554.20449" showgrid="false" inkscape:cy="461.80482" borderopacity="1.0" inkscape:zoom="0.67776214" pagecolor="#ffffff" bordercolor="#666666" fit-margin-left="0" fit-margin-top="0" id="base">
	</sodipodi:namedview>
<g id="layer1" transform="translate(64.859404,-75.438573)" inkscape:label="Camada 1" inkscape:groupmode="layer">
	<g id="g3804">
		
			<path id="path2985" sodipodi:rx="351.00366" sodipodi:ry="351.00366" sodipodi:type="arc" sodipodi:cx="428.86029" sodipodi:cy="579.38312" class="st0" d="
			M862.1,472.2c0,200.3-162.4,362.7-362.7,362.7S136.8,672.5,136.8,472.2s162.4-362.7,362.7-362.7S862.1,271.9,862.1,472.2z"/>
		
			<path id="path3801" inkscape:connector-curvature="0" sodipodi:nodetypes="cssssssssssssssssssssssscssssssssssssssssssssssssssssssssssssssssssssssssssssssssssssssssssssssssssssssssssssssssssssssssssssssssssssssssssssssssssssssssssssssssssssssssssssssssssssssc" class="st1" d="
			M498,472.3c20.4,19.8-6,35.5-23.9,26.3c-21.7-11.2-24.2-41.4-11.3-60.5c17-25.4,52.4-28,75.3-9.8c27.6,21.9,30.1,64.1,8.8,91.4
			c-24.5,31.3-70.3,34-99.8,8.6c-32.8-28.2-35.4-80.2-8.1-113.3c29.9-36.3,84.2-39,118.8-8.3c37.3,33.3,40,93.2,8,131.2
			c-34.3,40.7-95.9,43.5-134.8,8.2c-41.3-37.5-44.1-104.5-7.9-146.7c38.2-44.6,106.1-47.6,148.9-8.2c44.9,41.3,47.9,114.5,8,160.5
			c-41.7,48.2-115.4,51.2-161.7,8.3c-48.3-44.7-51.3-123.6-8.1-173.1c44.8-51.5,123.9-54.6,173.4-8.5
			c51.3,47.9,54.5,132.1,8.3,184.8c-47.8,54.5-131.7,57.8-184.2,8.6C353.3,521.1,350,432,399,376.3c50.5-57.4,139.1-60.8,194.4-8.8
			c56.9,53.5,60.3,147.3,8.6,205.8c-53.1,60.1-146,63.7-204,9c-59.5-56.1-63-154.3-8.8-215.5c55.5-62.7,152.7-66.4,213.2-9.2
			c62,58.6,65.5,161,9.1,225.7c-60.2,61.9-161.6,62.2-222.5,1.9c-61.5-60.8-61.7-163-0.9-224.4c61.3-62,164.3-62.2,226.2-0.9
			c62.5,61.8,62.7,165.7,0.9,228.1c-62.3,63-167,63.2-229.9,0.9c-63.5-62.8-63.7-168.3-0.9-231.7c63.3-64,169.7-64.2,233.6-0.9
			c64.5,63.8,64.7,171,0.9,235.4c-64.3,65-172.3,65.2-237.2,0.9c-65.5-64.8-65.7-173.7-0.9-239.1c65.3-66,175-66.2,240.9-0.9
			c66.5,65.8,66.7,176.3,0.9,242.7c-66.3,67-177.7,67.2-244.5,0.9c-67.5-66.8-67.7-179-0.9-246.4c67.3-68,180.3-68.2,248.2-0.9
			c68.5,67.8,68.7,181.7,0.9,250c-68.3,69-183,69.2-251.9,0.9c-69.5-68.8-69.7-184.3-0.9-253.7c69.3-70,185.7-70.2,255.5-0.9
			c70.5,69.8,70.7,187,0.9,257.4c-70.3,71-188.3,71.2-259.2,0.9c-71.5-70.8-71.7-189.7-0.9-261c71.3-72,191-72.2,262.9-0.9
			c72.5,71.8,72.7,192.3,0.9,264.7c-72.3,72.9-193.7,73.2-266.5,0.9c-73.4-72.8-73.7-195-0.9-268.4c73.3-73.9,196.3-74.2,270.2-0.9
			c74.4,73.8,74.7,197.7,0.9,272c-74.3,74.9-199,75.2-273.9,0.9c-75.4-74.8-75.7-200.3-0.9-275.7c75.3-75.9,201.7-76.1,277.5-0.9
			c76.4,75.8,76.6,203,0.9,279.4c-76.3,76.9-204.3,77.1-281.2,0.9c-77.4-76.8-77.6-205.7-0.9-283c77.3-77.9,207-78.1,284.8-0.9
			c78.4,77.8,78.6,208.3,0.9,286.7c-78.3,78.9-209.7,79.1-288.5,0.9c-79.4-78.8-79.6-211-0.9-290.3c79.3-79.9,212.3-80.1,292.2-0.9
			c80.4,79.8,80.6,213.7,0.9,294c-80.3,80.9-215,81.1-295.8,0.9c-81.4-80.8-81.6-216.3-0.9-297.7c81.3-81.9,217.6-82.1,299.5-0.9
			c82.4,81.8,82.6,219,0.9,301.3c-82.3,82.9-220.3,83.1-303.2,0.9c-83.4-82.8-83.6-221.6-0.9-305c83.3-83.9,223-84.1,306.8-0.9
			c84.4,83.8,84.6,224.3,0.9,308.7c-84.3,84.9-225.6,85.1-310.5,0.9c-85.4-84.8-85.6-227-0.9-312.3c85.3-85.9,228.3-86.1,314.2-0.9
			c86.4,85.8,86.6,229.6,0.9,316c-86.3,86.9-231,87.1-317.8,0.9c-87.4-86.8-87.6-232.3-0.9-319.7c87.3-87.9,233.6-88.1,321.5-0.9
			c88.4,87.8,88.6,235,0.9,323.3c-88.3,88.9-236.3,89.1-325.1,0.9c-89.4-88.8-89.6-237.6-0.9-327c89.3-89.9,239-90.1,328.8-0.9
			c90.4,89.8,90.6,240.3,0.9,330.6c-90.3,90.9-241.6,91.1-332.5,0.9c-91.4-90.8-91.6-243-0.9-334.3c91.3-91.9,244.3-92.1,336.1-0.9
			c92.4,91.8,92.6,245.6,0.9,338c-92.3,92.9-247,93.1-339.8,0.9c-93.4-92.8-93.6-248.3-0.9-341.6c93.3-93.9,249.6-94.1,343.5-0.9
			c94.4,93.8,94.6,251,0.9,345.3c-94.3,94.9-252.3,95.1-347.1,0.9c-95.4-94.8-95.6-253.6-0.9-349c95.3-95.9,255-96.1,350.8-0.9
			c96.4,95.8,96.6,256.3,0.9,352.6c-96.3,96.9-257.6,97.1-354.5,0.9c-97.4-96.8-97.6-259-0.9-356.3c97.3-97.9,260.3-98.1,358.1-0.9
			c98.4,97.8,98.6,261.6,0.9,360c-98.3,98.9-263,99.1-361.8,0.9c-99.4-98.8-99.6-264.3-0.9-363.6c99.3-99.9,265.6-100.1,365.4-0.9
			c100.4,99.8,100.6,267,0.9,367.3c-100.3,100.9-268.3,101.1-369.1,0.9c-101.4-100.8-101.6-269.6-0.9-370.9
			c101.3-101.9,271-102.1,372.8-0.9c102.4,101.7,102.6,272.3,0.9,374.6c-102.2,102.9-273.6,103.1-376.4,0.9
			c-103.4-102.7-103.6-275-0.9-378.3c103.2-103.9,276.3-104.1,380.1-0.9c104.4,103.7,104.6,277.6,0.9,381.9
			c-104.2,104.9-279,105.1-383.8,0.9C203,561,202.8,385.5,307.5,280.2c105.2-105.9,281.6-106.1,387.4-0.9
			c106.4,105.7,106.6,283,0.9,389.3c-106.2,106.9-284.3,107.1-391.1,0.9c-107.4-106.7-107.6-285.6-0.9-392.9
			c107.2-107.9,287-108.1,394.8-0.9c108.4,107.7,108.6,288.3,0.9,396.6c-108.2,108.9-289.6,109.1-398.4,0.9
			c-109.4-108.7-109.6-291-0.9-400.3c109.2-109.9,292.3-110.1,402.1-0.9c110.4,109.7,110.6,293.6,0.9,403.9
			c-110.2,110.9-295,111.1-405.7,0.9c-111.4-110.7-111.6-296.3-0.9-407.6c111.2-111.9,297.6-112.1,409.4-0.9
			c112.4,111.7,112.6,299,0.9,411.2c-112.2,112.9-300.3,113.1-413.1,0.9c-113.4-112.7-113.6-301.6-0.9-414.9
			c113.2-113.9,303-114.1,416.7-0.9c114.4,113.7,114.6,304.3,0.9,418.6c-114.2,114.9-305.6,115.1-420.4,0.9
			c-115.4-114.7-115.6-307-0.9-422.2C404.4,146,597.5,145.8,713.2,261c116.4,115.7,116.6,309.6,0.9,425.9
			c-116.2,116.9-311,117.1-427.7,0.9c-117.4-116.7-117.6-312.3-0.9-429.6c117.2-117.9,313.6-118.1,431.4-0.9
			c118.4,117.7,118.6,315,0.9,433.2c-118.2,118.9-316.3,119.1-435.1,0.9c-119.3-118.7-119.6-317.6-0.9-436.9
			c119.2-119.8,318.9-120.1,438.7-0.9c120.3,119.7,120.6,320.3,0.9,440.6C601.3,815,399.9,815.2,279.1,695.1
			c-121.3-120.7-121.6-322.9-0.9-444.2c121.2-121.8,324.3-122,446-0.9c122.3,121.7,122.5,325.6,0.9,447.9
			c-122.2,122.8-326.9,123-449.7,0.9c-123.3-122.7-123.5-328.3-0.9-451.5c123.2-123.8,329.6-124,453.4-0.9
			c124.3,123.7,124.5,330.9,0.9,455.2c-124.2,124.8-332.3,125-457,0.9c-125.3-124.7-125.5-333.6-0.9-458.9
			c125.2-125.8,334.9-126,460.7-0.9c126.3,125.7,126.5,336.3,0.9,462.5c-126.2,126.8-337.6,127-464.4,0.9
			c-127.3-126.7-127.5-338.9-0.9-466.2c127.2-127.8,340.3-128,468-0.9c128.3,127.7,128.5,341.6,0.9,469.9
			c-128.2,128.8-342.9,129-471.7,0.9c-129.3-128.7-129.5-344.3-0.9-473.5c129.2-129.8,345.6-130,475.4-0.9
			c130.3,129.7,130.5,346.9,0.9,477.2c-130.2,130.8-348.3,131-479,0.9c-131.3-130.7-131.5-349.6-0.9-480.9
			c131.2-131.8,350.9-132,482.7-0.9c132.3,131.7,132.5,352.3,0.9,484.5c-132.2,132.8-353.6,133-486.3,0.9
			c-133.3-132.7-133.5-354.9-0.9-488.2c133.2-133.8,356.3-134,490-0.9c134.3,133.7,134.5,357.6,0.9,491.8
			c-134.2,134.8-358.9,135-493.7,0.9c-135.3-134.7-135.5-360.3-0.9-495.5c135.2-135.8,361.6-136,497.3-0.9
			c136.3,135.7,136.5,362.9,0.9,499.2c-136.2,136.8-364.3,137-501,0.9c-137.3-136.7-137.5-365.6-0.9-502.8
			c137.2-137.8,366.9-138,504.7-0.9c138.3,137.7,138.5,368.3,0.9,506.5c-138.2,138.8-369.6,139-508.3,0.9
			c-139.3-138.7-139.5-370.9-0.9-510.2c139.2-139.8,372.3-140,512-0.9"/>
		<g id="path3791" inkscape:connector-curvature="0" sodipodi:nodetypes="ccccc" class="st2">
			
				<radialGradient id="SVGID_1_" cx="434.5449" cy="398.0532" r="362.7198" gradientTransform="matrix(1 0 0 -0.9247 64.8594 840.0286)" gradientUnits="userSpaceOnUse">
				<stop  offset="0" style="stop-color:#FFFFFF;stop-opacity:0.1"/>
				<stop  offset="1" style="stop-color:#FFFFFF;stop-opacity:0"/>
			</radialGradient>
			<path class="st3" d="M862.1,471.6l-725.4,0.8c1.9,136.6,72,268.6,224.6,335l276.1-670.8C770.4,193.5,858.4,315.1,862.1,471.6z"/>
		</g>
		
			<radialGradient id="path3763_1_" cx="269.2626" cy="308.1853" r="357.8397" gradientTransform="matrix(0.3657 0 0 -0.3657 400.9957 584.865)" gradientUnits="userSpaceOnUse">
			<stop  offset="0" style="stop-color:#C8BE75"/>
			<stop  offset="0.2294" style="stop-color:#F3E68E"/>
			<stop  offset="0.7615" style="stop-color:#F4E78F"/>
			<stop  offset="1" style="stop-color:#BDB36E"/>
		</radialGradient>
		
			<path id="path3763" sodipodi:rx="351.00366" sodipodi:ry="351.00366" sodipodi:type="arc" sodipodi:cx="428.86029" sodipodi:cy="579.38312" class="st4" d="
			M627.8,472.2c0,70.9-57.5,128.4-128.4,128.4s-128.4-57.5-128.4-128.4s57.5-128.4,128.4-128.4S627.8,401.3,627.8,472.2z"/>
		
			<path id="path3765" sodipodi:rx="351.00366" sodipodi:ry="351.00366" sodipodi:type="arc" sodipodi:cx="428.86029" sodipodi:cy="579.38312" class="st5" d="
			M511.3,472.2c0,6.5-5.3,11.8-11.8,11.8c-6.5,0-11.8-5.3-11.8-11.8s5.3-11.8,11.8-11.8C506,460.4,511.3,465.6,511.3,472.2z"/>
		<text transform="matrix(1 0 0 1 503.3948 477.5935)" class="st6 st7">   </text>
	</g>
</g>
</svg>
